<svg xmlns="http://www.w3.org/2000/svg"><symbol id="icon-search" viewBox="0 0 18 18"><path fill="currentColor" d="M12.8 11.4c.9-1.2 1.4-2.7 1.4-4.3C14.2 3.2 11 0 7.1 0S0 3.2 0 7.1c0 3.9 3.2 7.1 7.1 7.1 1.6 0 3.1-.5 4.3-1.4l5.2 5.2 1.4-1.4-5.2-5.2zM2 7.1C2 4.3 4.3 2 7.1 2s5.1 2.3 5.1 5.1-2.3 5.1-5.1 5.1S2 9.9 2 7.1z"/></symbol><symbol id="icon-view-default" viewBox="0 0 18 18"><g fill="currentColor"><path d="M8 11H0V0h8v11zM18 5h-8V0h8v5zM8 18H0v-5h8v5zM18 18h-8V7h8v11z"/></g></symbol><symbol id="icon-view-alt" viewBox="0 0 18 18"><g fill="currentColor"><path d="M8 8H0V0h8v8zM18 8h-8V0h8v8zM8 18H0v-8h8v8zM18 18h-8v-8h8v8z"/></g></symbol><symbol id="icon-view-full" viewBox="0 0 18 18"><g fill="currentColor"><path d="M18 8H0V0h18v8zM18 18H0v-8h18v8z"/></g></symbol><symbol id="icon-facebook" viewBox="0 0 9 19"><path fill="currentColor" d="M6.7 3.6H9V0H6.3c-3.3.1-4 2.1-4 4.1V6H0v3.5h2.2V19h3.4V9.5h2.8L8.9 6H5.6V4.9c0-.7.4-1.3 1.1-1.3z"/></symbol><symbol id="icon-twitter" viewBox="0 0 17.9 15"><path fill="currentColor" d="M17.9 1.8c-.3.2-1.2.5-2 .6.5-.3 1.3-1.3 1.5-2.1-.5.3-1.7.8-2.3.8C14.4.5 13.5 0 12.4 0c-2 0-3.7 1.7-3.7 3.8 0 .3 0 .6.1.8-2.8-.1-6-1.5-7.8-4-1.1 2-.2 4.2 1.1 5-.4 0-1.2-.1-1.6-.4 0 1.3.6 3.1 2.9 3.7-.5.4-1.3.3-1.6.3.1 1.1 1.6 2.6 3.3 2.6-.6.7-2.6 2-5.1 1.6 1.7 1 3.7 1.6 5.8 1.6 6 0 10.6-5 10.3-11.1v-.1c.6-.4 1.3-1.1 1.8-2z"/></symbol><symbol id="icon-tiktok" viewBox="0 0 33 30"><path fill="currentColor" d="M16.708 0.027c1.745-0.027 3.48-0.011 5.213-0.027 0.105 2.041 0.839 4.12 2.333 5.563 1.491 1.479 3.6 2.156 5.652 2.385v5.369c-1.923-0.063-3.855-0.463-5.6-1.291-0.76-0.344-1.468-0.787-2.161-1.24-0.009 3.896 0.016 7.787-0.025 11.667-0.104 1.864-0.719 3.719-1.803 5.255-1.744 2.557-4.771 4.224-7.88 4.276-1.907 0.109-3.812-0.411-5.437-1.369-2.693-1.588-4.588-4.495-4.864-7.615-0.032-0.667-0.043-1.333-0.016-1.984 0.24-2.537 1.495-4.964 3.443-6.615 2.208-1.923 5.301-2.839 8.197-2.297 0.027 1.975-0.052 3.948-0.052 5.923-1.323-0.428-2.869-0.308-4.025 0.495-0.844 0.547-1.485 1.385-1.819 2.333-0.276 0.676-0.197 1.427-0.181 2.145 0.317 2.188 2.421 4.027 4.667 3.828 1.489-0.016 2.916-0.88 3.692-2.145 0.251-0.443 0.532-0.896 0.547-1.417 0.131-2.385 0.079-4.76 0.095-7.145 0.011-5.375-0.016-10.735 0.025-16.093z"/></symbol><symbol id="icon-pinterest" viewBox="0 0 18 18"><path fill="currentColor" d="M2.3 0h13.4C17 0 18 .9 18 2.3v13.4c0 1.4-1 2.3-2.3 2.3H2.3C1 18 0 17.1 0 15.7V2.3C0 .9 1 0 2.3 0zm10.8 2c-.4 0-.8.4-.8.8v1.9c0 .4.4.8.8.8h2c.4 0 .8-.4.8-.8V2.8c.1-.4-.3-.8-.8-.8h-2zM16 7.6h-1.6c.2.5.2 1 .2 1.5 0 3-2.5 5.4-5.6 5.4-3.1 0-5.6-2.4-5.6-5.4 0-.5.1-1.1.2-1.5H2v7.6c0 .4.3.7.7.7h12.5c.4 0 .7-.3.7-.7l.1-7.6zM9 5.5C7 5.5 5.4 7 5.4 9c0 1.9 1.6 3.5 3.6 3.5s3.6-1.6 3.6-3.5c0-2-1.6-3.5-3.6-3.5z"/></symbol><symbol id="icon-tumblr" viewBox="0 0 11 19"><path fill="currentColor" d="M8.6 15.9c-1.6 0-2.3-1.3-2.3-2.2V7.8h4.1v-3h-4V.1S4.7 0 3.5 0C3.5 4.1 0 4.9 0 4.9v2.8h2.3v7C2.3 17.1 4.4 19 7 19s4-1.1 4-1.1v-3.1c0 .1-.8 1.1-2.4 1.1z"/></symbol><symbol id="icon-menu" viewBox="0 0 274.5 224.5"><g fill="currentColor"><path d="M274 53.8H.5V.5H274v53.3zM274 138.9H.5V85.6H274v53.3zM274 224H.5v-53.3H274V224z"/></g></symbol><symbol id="bar" viewBox="0 0 274.5 54.3"><path fill="currentColor" d="M274 53.8H.5V.5H274v53.3z"/></symbol><symbol id="arrow" viewBox="0 0 38 14"><path fill="currentColor" d="M31 0l-1.4 1.4L34.2 6H0v2h34.2l-4.6 4.6L31 14l7-7-7-7z"/></symbol><symbol id="refresh" viewBox="0 0 19 16"><path fill="currentColor" d="M9.4 6.2l5.9 4.4L19 4.4l-1.7-1L15.7 6c-.9-3.5-4-6-7.7-6-4.4 0-8 3.6-8 8s3.6 8 8 8c2.1 0 4.1-.8 5.6-2.3l-1.4-1.4C11.1 13.3 9.6 14 8 14c-3.3 0-6-2.7-6-6s2.7-6 6-6c3 0 5.4 2.2 5.9 5l-3.3-2.4-1.2 1.6z"/></symbol><symbol id="icon-instagram" viewBox="0 0 33 30"><path fill="currentColor" d="M16 0c-4.349 0-4.891 0.021-6.593 0.093-1.709 0.084-2.865 0.349-3.885 0.745-1.052 0.412-1.948 0.959-2.833 1.849-0.891 0.885-1.443 1.781-1.849 2.833-0.396 1.020-0.661 2.176-0.745 3.885-0.077 1.703-0.093 2.244-0.093 6.593s0.021 4.891 0.093 6.593c0.084 1.704 0.349 2.865 0.745 3.885 0.412 1.052 0.959 1.948 1.849 2.833 0.885 0.891 1.781 1.443 2.833 1.849 1.020 0.391 2.181 0.661 3.885 0.745 1.703 0.077 2.244 0.093 6.593 0.093s4.891-0.021 6.593-0.093c1.704-0.084 2.865-0.355 3.885-0.745 1.052-0.412 1.948-0.959 2.833-1.849 0.891-0.885 1.443-1.776 1.849-2.833 0.391-1.020 0.661-2.181 0.745-3.885 0.077-1.703 0.093-2.244 0.093-6.593s-0.021-4.891-0.093-6.593c-0.084-1.704-0.355-2.871-0.745-3.885-0.412-1.052-0.959-1.948-1.849-2.833-0.885-0.891-1.776-1.443-2.833-1.849-1.020-0.396-2.181-0.661-3.885-0.745-1.703-0.077-2.244-0.093-6.593-0.093zM16 2.88c4.271 0 4.781 0.021 6.469 0.093 1.557 0.073 2.405 0.333 2.968 0.553 0.751 0.291 1.276 0.635 1.844 1.197 0.557 0.557 0.901 1.088 1.192 1.839 0.22 0.563 0.48 1.411 0.553 2.968 0.072 1.688 0.093 2.199 0.093 6.469s-0.021 4.781-0.099 6.469c-0.084 1.557-0.344 2.405-0.563 2.968-0.303 0.751-0.641 1.276-1.199 1.844-0.563 0.557-1.099 0.901-1.844 1.192-0.556 0.22-1.416 0.48-2.979 0.553-1.697 0.072-2.197 0.093-6.479 0.093s-4.781-0.021-6.48-0.099c-1.557-0.084-2.416-0.344-2.979-0.563-0.76-0.303-1.281-0.641-1.839-1.199-0.563-0.563-0.921-1.099-1.197-1.844-0.224-0.556-0.48-1.416-0.563-2.979-0.057-1.677-0.084-2.197-0.084-6.459 0-4.26 0.027-4.781 0.084-6.479 0.083-1.563 0.339-2.421 0.563-2.979 0.276-0.761 0.635-1.281 1.197-1.844 0.557-0.557 1.079-0.917 1.839-1.199 0.563-0.219 1.401-0.479 2.964-0.557 1.697-0.061 2.197-0.083 6.473-0.083zM16 7.787c-4.541 0-8.213 3.677-8.213 8.213 0 4.541 3.677 8.213 8.213 8.213 4.541 0 8.213-3.677 8.213-8.213 0-4.541-3.677-8.213-8.213-8.213zM16 21.333c-2.948 0-5.333-2.385-5.333-5.333s2.385-5.333 5.333-5.333c2.948 0 5.333 2.385 5.333 5.333s-2.385 5.333-5.333 5.333zM26.464 7.459c0 1.063-0.865 1.921-1.923 1.921-1.063 0-1.921-0.859-1.921-1.921 0-1.057 0.864-1.917 1.921-1.917s1.923 0.86 1.923 1.917z"/></symbol><symbol id="icon-youtube" viewBox="0 0 33 25"><path fill="currentColor" d="M31.328 8.271c-0.38-1.349-1.432-2.407-2.787-2.781-2.495-0.667-12.525-0.667-12.525-0.667s-10.011-0.016-12.532 0.667c-1.348 0.375-2.405 1.432-2.781 2.781-0.473 2.557-0.708 5.145-0.697 7.745-0.005 2.583 0.229 5.167 0.697 7.708 0.376 1.349 1.433 2.407 2.781 2.787 2.495 0.667 12.532 0.667 12.532 0.667s10.005 0 12.525-0.667c1.355-0.38 2.407-1.437 2.787-2.787 0.459-2.541 0.683-5.125 0.667-7.708 0.016-2.6-0.203-5.188-0.667-7.745zM12.812 20.803v-9.595l8.349 4.808z"/></symbol>
<symbol id="icon-github" viewBox="0 0 35 55"><path fill="currentColor" d="M12.029,8.345c-13.27,0 -24.029,10.759 -24.029,24.033c0,10.617 6.885,19.624 16.435,22.803c1.202,0.22 1.64,-0.522 1.64,-1.16c0,-0.569 -0.02,-2.081 -0.032,-4.086c-6.685,1.452 -8.095,-3.222 -8.095,-3.222c-1.093,-2.775 -2.669,-3.514 -2.669,-3.514c-2.182,-1.492 0.165,-1.462 0.165,-1.462c2.412,0.171 3.681,2.477 3.681,2.477c2.144,3.672 5.625,2.611 6.994,1.997c0.219,-1.553 0.838,-2.612 1.526,-3.213c-5.336,-0.606 -10.947,-2.669 -10.947,-11.877c0,-2.623 0.937,-4.769 2.474,-6.449c-0.247,-0.608 -1.072,-3.051 0.235,-6.36c0,0 2.018,-0.646 6.609,2.464c1.917,-0.533 3.973,-0.8 6.016,-0.809c2.041,0.009 4.097,0.276 6.017,0.809c4.588,-3.11 6.602,-2.464 6.602,-2.464c1.311,3.309 0.486,5.752 0.239,6.36c1.54,1.68 2.471,3.826 2.471,6.449c0,9.232 -5.62,11.263 -10.974,11.858c0.864,0.742 1.632,2.208 1.632,4.451c0,3.212 -0.029,5.804 -0.029,6.591c0,0.644 0.432,1.392 1.652,1.157c9.542,-3.185 16.421,-12.186 16.421,-22.8c0,-13.274 -10.76,-24.033 -24.034,-24.033"/></symbol>
</svg>